<?xml version="1.0" encoding="utf-8"?>
<!-- Generator: Adobe Illustrator 22.1.0, SVG Export Plug-In . SVG Version: 6.00 Build 0)  -->
<svg version="1.1" id="Isolationsmodus" xmlns="http://www.w3.org/2000/svg" xmlns:xlink="http://www.w3.org/1999/xlink" x="0px"
	 y="0px" viewBox="0 0 124.5 118.7" style="enable-background:new 0 0 124.5 118.7;" xml:space="preserve">
<style type="text/css">
	.st0{fill:#97BF3A;}
	.st1{fill:none;stroke:#202020;stroke-width:3;stroke-linecap:round;stroke-miterlimit:10;}
</style>
<g>
	<g>
		<path class="st0" d="M84.2,57c0.3-0.3,0.4-0.7,0.3-1.1c-0.1-0.4-0.5-0.7-0.9-0.7L71,53.3c-0.9-0.1-1.7-0.7-2.1-1.5l-5.6-11.4
			c-0.2-0.4-0.6-0.6-1-0.6h0c-0.4,0-0.8,0.2-1,0.6l-5.6,11.4c-0.4,0.8-1.2,1.4-2.1,1.5l-12.6,1.8c-0.4,0.1-0.8,0.3-0.9,0.7
			c-0.1,0.4,0,0.8,0.3,1.1l9.1,8.9c0.7,0.6,1,1.6,0.8,2.5L48.1,81c-0.1,0.4,0.1,0.8,0.4,1.1c0.2,0.1,0.4,0.2,0.6,0.2
			c0.2,0,0.3,0,0.5-0.1l11.3-5.9c0.8-0.4,1.8-0.4,2.6,0l11.3,5.9c0.4,0.2,0.8,0.2,1.2-0.1c0.3-0.2,0.5-0.7,0.4-1.1l-2.2-12.6
			c-0.2-0.9,0.1-1.8,0.8-2.5L84.2,57z"/>
	</g>
	<path class="st1" d="M63.4,2.2l15.8,32c1.4,2.8,4.1,4.8,7.2,5.3l35.4,5.1c1.1,0.2,1.5,1.5,0.7,2.3L97,71.9
		c-2.3,2.2-3.3,5.4-2.8,8.5l6,35.2c0.2,1.1-0.9,1.9-1.9,1.4l-31.6-16.6c-2.8-1.5-6.2-1.5-9,0L26.1,117c-1,0.5-2.1-0.3-1.9-1.4
		l6-35.2c0.5-3.1-0.5-6.3-2.8-8.5L1.9,46.9c-0.8-0.8-0.4-2.1,0.7-2.3L38,39.6c3.1-0.5,5.8-2.4,7.2-5.3l15.8-32
		C61.6,1.3,63,1.3,63.4,2.2z"/>
</g>
</svg>
