<?xml version="1.0" encoding="utf-8"?>
<!-- Generator: Adobe Illustrator 22.1.0, SVG Export Plug-In . SVG Version: 6.00 Build 0)  -->
<svg version="1.1" id="Isolationsmodus" xmlns="http://www.w3.org/2000/svg" xmlns:xlink="http://www.w3.org/1999/xlink" x="0px"
	 y="0px" viewBox="0 0 63.8 113.8" style="enable-background:new 0 0 63.8 113.8;" xml:space="preserve">
<style type="text/css">
	.st0{fill:none;stroke:#202020;stroke-width:3;stroke-miterlimit:10;}
	.st1{fill:#97BF3A;}
</style>
<g>
	<path class="st0" d="M6.7,103.8c0,0-10.9-23.1,17.8-41.2c0,0,4.4-2.7,4.4-5.7c0-3-4.4-5.7-4.4-5.7C-4.2,33,6.7,10,6.7,10"/>
	<path class="st0" d="M62.3,10H1.5V4.5c0-1.7,1.4-3,3-3h54.7c1.7,0,3,1.4,3,3V10z"/>
	<path class="st0" d="M62.3,103.8H1.5v5.4c0,1.7,1.4,3,3,3h54.7c1.7,0,3-1.4,3-3V103.8z"/>
	<path class="st0" d="M57.1,103.8c0,0,10.9-23.1-17.8-41.2c0,0-4.4-2.7-4.4-5.7c0-3,4.4-5.7,4.4-5.7C68,33,57.1,10,57.1,10"/>
	<path class="st0" d="M57.1,103.8c0,0,10.9-23.1-17.8-41.2c0,0-4.4-2.7-4.4-5.7c0-3,4.4-5.7,4.4-5.7C68,33,57.1,10,57.1,10H6.7
		c0,0-10.9,23.1,17.8,41.2c0,0,4.4,2.7,4.4,5.7c0,3-4.4,5.7-4.4,5.7C-4.2,80.8,6.7,103.8,6.7,103.8H57.1z"/>
	<path class="st1" d="M10.5,98.6h42.8c0.5-2.2,0.9-5.4,0.3-9.1c-7-1.6-14.2-2.5-21.7-2.5c-7.5,0-14.7,0.9-21.7,2.5
		C9.7,93.2,10,96.4,10.5,98.6z"/>
	<path class="st1" d="M27.3,46.7c0.7,0.4,2.9,1.8,4.6,4c1.7-2.2,3.8-3.6,4.6-4c11.1-7,15.4-14.7,16.8-21c-6.9-1.6-14-2.4-21.3-2.4
		c-7.4,0-14.5,0.8-21.4,2.4C11.9,32,16.2,39.7,27.3,46.7z"/>
</g>
</svg>
