<?xml version="1.0" encoding="utf-8"?>
<!-- Generator: Adobe Illustrator 22.1.0, SVG Export Plug-In . SVG Version: 6.00 Build 0)  -->
<svg version="1.1" id="Isolationsmodus" xmlns="http://www.w3.org/2000/svg" xmlns:xlink="http://www.w3.org/1999/xlink" x="0px"
	 y="0px" viewBox="0 0 113.8 113.8" style="enable-background:new 0 0 113.8 113.8;" xml:space="preserve">
<style type="text/css">
	.st0{fill:none;stroke:#202020;stroke-width:3;stroke-linecap:round;stroke-linejoin:round;stroke-miterlimit:10;}
	.st1{fill:#97BF3A;}
</style>
<path class="st0" d="M110.4,89.8L92.3,71.7c-2.5-2.5-6.6-2.5-9.1,0L74,80.8c-2.3,2.3-5.9,2.7-8.6,1c-13.6-8.6-25-20-33.5-33.5
	c-1.7-2.7-1.3-6.3,1-8.5l9.1-9.1c2.5-2.5,2.5-6.6,0-9.1L23.9,3.4c-2.5-2.5-6.6-2.5-9.1,0L4.1,14.1c-2.4,2.4-3.2,6-2,9.2
	c15.1,41,47.4,73.4,88.5,88.5c3.2,1.2,6.8,0.4,9.2-2L110.4,99C112.9,96.5,112.9,92.4,110.4,89.8z"/>
<path class="st1" d="M13.8,9.8L17,6.6c0,0,1.6-1.6,3.1,0l17.5,17.4c0,0,2.4,2.3,0.6,4.8l-2.9,3L13.8,9.8z"/>
<path class="st1" d="M82.3,78.4l3.3-3.3c0,0,1.6-1.6,3.1,0l17.5,17.4c0,0,2.4,2.3,0.6,4.8l-2.9,3L82.3,78.4z"/>
</svg>
