<?xml version="1.0" encoding="utf-8"?>
<!-- Generator: Adobe Illustrator 22.1.0, SVG Export Plug-In . SVG Version: 6.00 Build 0)  -->
<svg version="1.1" id="Isolationsmodus" xmlns="http://www.w3.org/2000/svg" xmlns:xlink="http://www.w3.org/1999/xlink" x="0px"
	 y="0px" viewBox="0 0 108.1 108.1" style="enable-background:new 0 0 108.1 108.1;" xml:space="preserve">
<style type="text/css">
	.st0{fill:none;stroke:#202020;stroke-width:3;stroke-linecap:round;stroke-linejoin:round;stroke-miterlimit:10;}
	.st1{fill:#97BF3A;}
</style>
<g id="XMLID_17293_">
	<polygon id="XMLID_17297_" class="st0" points="9.9,27.1 28.4,45.7 45.7,28.4 27.1,9.9 35.5,1.5 1.5,1.5 1.5,35.4 	"/>
	<polygon id="XMLID_17296_" class="st0" points="62.5,28.4 79.7,45.7 98.3,27.1 106.6,35.4 106.6,1.5 72.7,1.5 81,9.9 	"/>
	<polygon id="XMLID_17295_" class="st0" points="1.5,106.6 35.5,106.6 27.1,98.3 45.7,79.7 28.4,62.5 9.9,81 1.5,72.7 	"/>
	<polygon id="XMLID_17294_" class="st0" points="72.7,106.6 106.6,106.6 106.6,72.7 98.3,81 79.7,62.5 62.5,79.7 81,98.3 	"/>
	<polygon class="st1" points="34.9,23.7 39.9,28.7 28.5,39.9 23.9,35.2 	"/>
	<polygon class="st1" points="84.6,35 79.6,40 68.4,28.6 73.1,24 	"/>
	<polygon class="st1" points="73.7,84.9 68.7,79.9 80,68.7 84.7,73.4 	"/>
	<polygon class="st1" points="23.4,73.6 28.4,68.6 39.6,80 34.9,84.6 	"/>
</g>
</svg>
