<?xml version="1.0" encoding="utf-8"?>
<!-- Generator: Adobe Illustrator 22.1.0, SVG Export Plug-In . SVG Version: 6.00 Build 0)  -->
<svg version="1.1" id="Isolationsmodus" xmlns="http://www.w3.org/2000/svg" xmlns:xlink="http://www.w3.org/1999/xlink" x="0px"
	 y="0px" viewBox="0 0 129.5 110" style="enable-background:new 0 0 129.5 110;" xml:space="preserve">
<style type="text/css">
	.st0{fill:#97BF3A;}
	.st1{fill:none;stroke:#202020;stroke-width:3;stroke-linecap:round;stroke-linejoin:round;stroke-miterlimit:10;}
</style>
<polygon class="st0" points="49.7,48.9 51.5,54.1 108,54.1 109.3,47.8 49.7,47.4 "/>
<polygon class="st0" points="45.6,33.5 47.6,38.8 110.6,38.8 111.7,32.1 45.6,32.1 "/>
<g>
	<path class="st1" d="M1.5,1.5h9.8c5.4,0,10.2,3.6,11.7,8.8l18.7,65.7c2.1,7.3,8.7,12.4,16.3,12.4h59.3"/>
	<path class="st1" d="M45.6,32.8l9.4,33.9h64.6l8.5-43.4c0.5-2.5-1.4-4.8-3.9-4.8H25.4"/>
	<line class="st1" x1="62" y1="32.8" x2="66.1" y2="58.2"/>
	<line class="st1" x1="79.4" y1="32.8" x2="79.4" y2="58.2"/>
	<line class="st1" x1="111.7" y1="32.8" x2="107.6" y2="58.2"/>
	<line class="st1" x1="94.3" y1="32.8" x2="94.3" y2="58.2"/>
	<line class="st1" x1="45.6" y1="32.8" x2="111.7" y2="32.8"/>
	<line class="st1" x1="49.7" y1="47.8" x2="109.3" y2="47.8"/>
	<path class="st1" d="M111.7,102.1c0,3.5-2.9,6.4-6.4,6.4s-6.4-2.9-6.4-6.4c0-3.5,2.9-6.4,6.4-6.4S111.7,98.6,111.7,102.1z"/>
	<path class="st1" d="M69.7,102.1c0,3.5-2.9,6.4-6.4,6.4c-3.5,0-6.4-2.9-6.4-6.4c0-3.5,2.9-6.4,6.4-6.4
		C66.8,95.7,69.7,98.6,69.7,102.1z"/>
</g>
</svg>
