<?xml version="1.0" encoding="utf-8"?>
<!-- Generator: Adobe Illustrator 22.1.0, SVG Export Plug-In . SVG Version: 6.00 Build 0)  -->
<svg version="1.1" id="Isolationsmodus" xmlns="http://www.w3.org/2000/svg" xmlns:xlink="http://www.w3.org/1999/xlink" x="0px"
	 y="0px" viewBox="0 0 113.8 113.8" style="enable-background:new 0 0 113.8 113.8;" xml:space="preserve">
<style type="text/css">
	.st0{fill:none;stroke:#202020;stroke-width:3;stroke-linecap:round;stroke-linejoin:round;stroke-miterlimit:10;}
	.st1{fill:none;stroke:#97BF3A;stroke-width:3;stroke-linecap:round;stroke-linejoin:round;stroke-miterlimit:10;}
</style>
<g>
	<path class="st0" d="M70.6,33.3L80.8,23c2.7-2.7,7.2-2.7,9.9,0c2.7,2.7,2.7,7.2,0,9.9L80.5,43.2"/>
	<line class="st0" x1="28.5" y1="85.3" x2="85.3" y2="28.5"/>
	<path class="st0" d="M74.7,52.7L74.7,52.7c3.6,3.6,9.4,3.6,13,0l19-19c7.4-7.4,7.4-19.3,0-26.7l0,0C99.4-0.3,87.4-0.3,80,7L61,26
		c-3.6,3.6-3.6,9.4,0,13l0,0"/>
	<path class="st0" d="M52.7,74.7L52.7,74.7c3.6,3.6,3.6,9.4,0,13l-19,19c-7.4,7.4-19.3,7.4-26.7,0l0,0C-0.3,99.4-0.3,87.4,7,80
		l19-19c3.6-3.6,9.4-3.6,13,0l0,0"/>
	<path class="st0" d="M43.2,80.5L32.9,90.7c-2.7,2.7-7.2,2.7-9.9,0c-2.7-2.7-2.7-7.2,0-9.9l10.3-10.3"/>
	<path class="st1" d="M40.3,78.6l-9.6,9.3c-1.3,1.3-3.5,1.3-4.9,0c-1.3-1.3-1.3-3.5,0-4.9l9.4-9.5"/>
	<path class="st1" d="M73.5,35.2l9.6-9.3c1.3-1.3,3.5-1.3,4.9,0c1.3,1.3,1.3,3.5,0,4.9l-9.4,9.5"/>
</g>
</svg>
