<?xml version="1.0" encoding="utf-8"?>
<!-- Generator: Adobe Illustrator 22.1.0, SVG Export Plug-In . SVG Version: 6.00 Build 0)  -->
<svg version="1.1" id="Isolationsmodus" xmlns="http://www.w3.org/2000/svg" xmlns:xlink="http://www.w3.org/1999/xlink" x="0px"
	 y="0px" viewBox="0 0 108 108" style="enable-background:new 0 0 108 108;" xml:space="preserve">
<style type="text/css">
	.st0{fill:none;stroke:#202020;stroke-width:3;stroke-linecap:round;stroke-miterlimit:10;}
	.st1{fill:#97BF3A;}
</style>
<g id="XMLID_17639_">
	
		<ellipse id="XMLID_17642_" transform="matrix(0.9748 -0.223 0.223 0.9748 -10.6869 13.4082)" class="st0" cx="54" cy="54" rx="52.5" ry="52.5"/>
	<g id="XMLID_17640_">
		<polyline id="XMLID_17641_" class="st0" points="31.5,56.8 49.4,72.8 78.5,37.2 		"/>
	</g>
	<g>
		<path class="st1" d="M54.3,6.2C27.8,6.2,6.1,27.8,6.1,54.4s21.6,48.2,48.2,48.2s48.2-21.6,48.2-48.2S80.9,6.2,54.3,6.2z
			 M54.3,96.7c-23.3,0-42.3-19-42.3-42.3c0-23.3,19-42.3,42.3-42.3c23.3,0,42.3,19,42.3,42.3C96.6,77.7,77.7,96.7,54.3,96.7z"/>
	</g>
</g>
</svg>
