<?xml version="1.0" encoding="utf-8"?>
<!-- Generator: Adobe Illustrator 22.1.0, SVG Export Plug-In . SVG Version: 6.00 Build 0)  -->
<svg version="1.1" id="Isolationsmodus" xmlns="http://www.w3.org/2000/svg" xmlns:xlink="http://www.w3.org/1999/xlink" x="0px"
	 y="0px" viewBox="0 0 123.2 100.1" style="enable-background:new 0 0 123.2 100.1;" xml:space="preserve">
<style type="text/css">
	.st0{fill:none;stroke:#202020;stroke-width:3;stroke-linecap:round;stroke-miterlimit:10;}
	.st1{fill:#97BF3A;}
</style>
<g>
	<line class="st0" x1="105.4" y1="18.2" x2="56" y2="18.2"/>
	<line class="st0" x1="56" y1="26.5" x2="105.4" y2="26.5"/>
	<line class="st0" x1="56" y1="34.9" x2="105.4" y2="34.9"/>
	<line class="st0" x1="17.8" y1="61" x2="67.2" y2="61"/>
	<line class="st0" x1="17.8" y1="69.4" x2="67.2" y2="69.4"/>
	<path class="st0" d="M39.7,4.6v44c0,1.7,1.4,3.1,3.1,3.1H110c0.8,0,1.6,0.3,2.2,0.9l9.5,9.6V51.6v-47c0-1.7-1.4-3.1-3.1-3.1H42.8
		C41.1,1.5,39.7,2.9,39.7,4.6z"/>
	<path class="st0" d="M83.5,51.6V83c0,1.7-1.4,3.1-3.1,3.1H13.2c-0.8,0-1.6,0.3-2.2,0.9l-9.5,9.6V86.1v-47c0-1.7,1.4-3.1,3.1-3.1
		h35.1"/>
</g>
<path class="st1" d="M44.1,44.3v-1.8h73.8v1.8v7.8l-2.9-3.1c0,0-1-1.3-6-1.4h-62C46.9,47.6,44.1,47.8,44.1,44.3z"/>
<path class="st1" d="M79.4,79.1v-1.8H5.6v1.8v7.8l2.9-3.1c0,0,1-1.3,6-1.4h62C76.5,82.3,79.4,82.5,79.4,79.1z"/>
</svg>
