<?xml version="1.0" encoding="utf-8"?>
<!-- Generator: Adobe Illustrator 22.1.0, SVG Export Plug-In . SVG Version: 6.00 Build 0)  -->
<svg version="1.1" id="Isolationsmodus" xmlns="http://www.w3.org/2000/svg" xmlns:xlink="http://www.w3.org/1999/xlink" x="0px"
	 y="0px" viewBox="0 0 108 108" style="enable-background:new 0 0 108 108;" xml:space="preserve">
<style type="text/css">
	.st0{fill:#97BF3A;}
	.st1{fill:none;stroke:#202020;stroke-width:3;stroke-linecap:round;stroke-miterlimit:10;}
</style>
<g>
	<g>
		<path class="st0" d="M54,5.8C27.4,5.8,5.8,27.4,5.8,54s21.6,48.2,48.2,48.2s48.2-21.6,48.2-48.2S80.6,5.8,54,5.8z M54,96.3
			c-23.3,0-42.3-19-42.3-42.3c0-23.3,19-42.3,42.3-42.3c23.3,0,42.3,19,42.3,42.3C96.3,77.3,77.3,96.3,54,96.3z"/>
	</g>
	<ellipse transform="matrix(0.9871 -0.1602 0.1602 0.9871 -7.9549 9.3498)" class="st1" cx="54" cy="54" rx="52.5" ry="52.5"/>
	<g>
		<path class="st1" d="M54,72.1v-6.7c0-5.5,3.1-10.5,8-13l0,0c5.2-2.6,8.7-7.8,8.8-13.7c0-0.3,0-0.6,0-0.9
			c-0.3-8.5-7.3-15.6-15.8-16.1c-9.7-0.5-17.7,7.2-17.7,16.8"/>
		<path class="st1" d="M58.2,85.8c0-2.3-1.9-4.2-4.2-4.2c-2.3,0-4.2,1.9-4.2,4.2c0,2.3,1.9,4.2,4.2,4.2C56.3,90,58.2,88.1,58.2,85.8
			z"/>
	</g>
</g>
</svg>
