<?xml version="1.0" encoding="utf-8"?>
<!-- Generator: Adobe Illustrator 22.1.0, SVG Export Plug-In . SVG Version: 6.00 Build 0)  -->
<svg version="1.1" id="Isolationsmodus" xmlns="http://www.w3.org/2000/svg" xmlns:xlink="http://www.w3.org/1999/xlink" x="0px"
	 y="0px" viewBox="0 0 107.1 113.2" style="enable-background:new 0 0 107.1 113.2;" xml:space="preserve">
<style type="text/css">
	.st0{fill:none;stroke:#202020;stroke-width:3;stroke-linecap:round;stroke-linejoin:round;stroke-miterlimit:10;}
	.st1{fill:#97BF3A;}
</style>
<path class="st0" d="M1.5,66.3L58.2,9.6c5.2-5.2,12.2-8.1,19.6-8.1c0,0,0,0,0,0c7.4,0,14.4,2.9,19.6,8.1c10.8,10.8,10.8,28.4,0,39.2
	l-56.7,56.7c-4,4-9.3,6.2-14.9,6.2c-5.6,0-10.9-2.2-14.9-6.2c-4-4-6.2-9.3-6.2-14.9c0-5.6,2.2-10.9,6.2-14.9l52-52
	c2.4-2.4,5.6-3.7,9-3.7c0,0,0,0,0,0c3.4,0,6.6,1.3,8.9,3.7c2.4,2.4,3.7,5.6,3.7,9c0,3.4-1.3,6.6-3.7,9L43.1,79.6"/>
<path class="st1" d="M5.7,67.9l56.4-55.7c0,0,1.1-0.8,2.1,0.5c0,0,1.2,1.1,0.6,2.1L8.3,70.4c0,0-1.2,1.1-2.2-0.3
	C6.1,70.1,4.5,69,5.7,67.9z"/>
<path class="st1" d="M34.6,99.2L91,43.5c0,0,1.1-0.8,2.1,0.5c0,0,1.2,1.1,0.6,2.1l-56.6,55.6c0,0-1.2,1.1-2.3-0.3
	C34.9,101.5,33.4,100.3,34.6,99.2z"/>
</svg>
